<svg xmlns="http://www.w3.org/2000/svg" version="1.1" xmlns:xlink="http://www.w3.org/1999/xlink" xmlns:svgjs="http://svgjs.dev/svgjs" width="1440" height="560" preserveAspectRatio="none" viewBox="0 0 1440 560">
    <g mask="url(&quot;#SvgjsMask1000&quot;)" fill="none">
        <rect width="1440" height="560" x="0" y="0" fill="#0e2a47"></rect>
        <path d="M-79.03 400.56L-79.03 400.56" stroke="#132e65" stroke-width="1.5"></path>
        <path d="M-79.03 400.56L-111.9 532.45" stroke="#132e65" stroke-width="1.5"></path>
        <path d="M-79.03 400.56L83.66 397.79" stroke="#132e65" stroke-width="1.5"></path>
        <path d="M-79.03 400.56L67.07 544.94" stroke="#132e65" stroke-width="1.5"></path>
        <path d="M-111.9 532.45L-111.9 532.45" stroke="#132e65" stroke-width="1.5"></path>
        <path d="M-111.9 532.45L-96.25 641.74" stroke="#132e65" stroke-width="1.5"></path>
        <path d="M-111.9 532.45L67.07 544.94" stroke="#132e65" stroke-width="1.5"></path>
        <path d="M-111.9 532.45L83.66 397.79" stroke="#132e65" stroke-width="1.5"></path>
        <path d="M-111.9 532.45L64.25 704.6" stroke="#132e65" stroke-width="1.5"></path>
        <path d="M-111.9 532.45L187.55 541.84" stroke="#132e65" stroke-width="1.5"></path>
        <path d="M-96.25 641.74L-96.25 641.74" stroke="#132e65" stroke-width="1.5"></path>
        <path d="M-96.25 641.74L64.25 704.6" stroke="#132e65" stroke-width="1.5"></path>
        <path d="M-96.25 641.74L67.07 544.94" stroke="#132e65" stroke-width="1.5"></path>
        <path d="M83.66 397.79L83.66 397.79" stroke="#132e65" stroke-width="1.5"></path>
        <path d="M83.66 397.79L193.64 381.1" stroke="#132e65" stroke-width="1.5"></path>
        <path d="M83.66 397.79L67.07 544.94" stroke="#132e65" stroke-width="1.5"></path>
        <path d="M83.66 397.79L187.55 541.84" stroke="#132e65" stroke-width="1.5"></path>
        <path d="M67.07 544.94L67.07 544.94" stroke="#132e65" stroke-width="1.5"></path>
        <path d="M67.07 544.94L187.55 541.84" stroke="#132e65" stroke-width="1.5"></path>
        <path d="M67.07 544.94L64.25 704.6" stroke="#132e65" stroke-width="1.5"></path>
        <path d="M67.07 544.94L190.12 681.28" stroke="#132e65" stroke-width="1.5"></path>
        <path d="M64.25 704.6L64.25 704.6" stroke="#132e65" stroke-width="1.5"></path>
        <path d="M64.25 704.6L190.12 681.28" stroke="#132e65" stroke-width="1.5"></path>
        <path d="M64.25 704.6L187.55 541.84" stroke="#132e65" stroke-width="1.5"></path>
        <path d="M64.25 704.6L83.66 397.79" stroke="#132e65" stroke-width="1.5"></path>
        <path d="M193.64 381.1L193.64 381.1" stroke="#132e65" stroke-width="1.5"></path>
        <path d="M193.64 381.1L338.24 406.38" stroke="#132e65" stroke-width="1.5"></path>
        <path d="M193.64 381.1L187.55 541.84" stroke="#132e65" stroke-width="1.5"></path>
        <path d="M187.55 541.84L187.55 541.84" stroke="#132e65" stroke-width="1.5"></path>
        <path d="M187.55 541.84L190.12 681.28" stroke="#132e65" stroke-width="1.5"></path>
        <path d="M187.55 541.84L386.9 560.61" stroke="#132e65" stroke-width="1.5"></path>
        <path d="M187.55 541.84L338.24 406.38" stroke="#132e65" stroke-width="1.5"></path>
        <path d="M190.12 681.28L190.12 681.28" stroke="#132e65" stroke-width="1.5"></path>
        <path d="M190.12 681.28L375.04 702.3" stroke="#132e65" stroke-width="1.5"></path>
        <path d="M190.12 681.28L386.9 560.61" stroke="#132e65" stroke-width="1.5"></path>
        <path d="M190.12 681.28L-96.25 641.74" stroke="#132e65" stroke-width="1.5"></path>
        <path d="M338.24 406.38L338.24 406.38" stroke="#132e65" stroke-width="1.5"></path>
        <path d="M338.24 406.38L386.9 560.61" stroke="#132e65" stroke-width="1.5"></path>
        <path d="M338.24 406.38L508.06 512.69" stroke="#132e65" stroke-width="1.5"></path>
        <path d="M338.24 406.38L559.45 353.32" stroke="#132e65" stroke-width="1.5"></path>
        <path d="M338.24 406.38L83.66 397.79" stroke="#132e65" stroke-width="1.5"></path>
        <path d="M386.9 560.61L386.9 560.61" stroke="#132e65" stroke-width="1.5"></path>
        <path d="M386.9 560.61L508.06 512.69" stroke="#132e65" stroke-width="1.5"></path>
        <path d="M386.9 560.61L375.04 702.3" stroke="#132e65" stroke-width="1.5"></path>
        <path d="M386.9 560.61L193.64 381.1" stroke="#132e65" stroke-width="1.5"></path>
        <path d="M375.04 702.3L375.04 702.3" stroke="#132e65" stroke-width="1.5"></path>
        <path d="M375.04 702.3L508.06 512.69" stroke="#132e65" stroke-width="1.5"></path>
        <path d="M375.04 702.3L187.55 541.84" stroke="#132e65" stroke-width="1.5"></path>
        <path d="M559.45 353.32L559.45 353.32" stroke="#132e65" stroke-width="1.5"></path>
        <path d="M559.45 353.32L654.17 367.27" stroke="#132e65" stroke-width="1.5"></path>
        <path d="M559.45 353.32L508.06 512.69" stroke="#132e65" stroke-width="1.5"></path>
        <path d="M559.45 353.32L682.65 218.61" stroke="#132e65" stroke-width="1.5"></path>
        <path d="M508.06 512.69L508.06 512.69" stroke="#132e65" stroke-width="1.5"></path>
        <path d="M682.65 218.61L682.65 218.61" stroke="#132e65" stroke-width="1.5"></path>
        <path d="M682.65 218.61L654.17 367.27" stroke="#132e65" stroke-width="1.5"></path>
        <path d="M654.17 367.27L654.17 367.27" stroke="#132e65" stroke-width="1.5"></path>
        <path d="M654.17 367.27L692.82 506.33" stroke="#132e65" stroke-width="1.5"></path>
        <path d="M654.17 367.27L819.36 376.56" stroke="#132e65" stroke-width="1.5"></path>
        <path d="M654.17 367.27L508.06 512.69" stroke="#132e65" stroke-width="1.5"></path>
        <path d="M692.82 506.33L692.82 506.33" stroke="#132e65" stroke-width="1.5"></path>
        <path d="M692.82 506.33L817.6 536.45" stroke="#132e65" stroke-width="1.5"></path>
        <path d="M680 652.26L680 652.26" stroke="#132e65" stroke-width="1.5"></path>
        <path d="M680 652.26L803.32 644.57" stroke="#132e65" stroke-width="1.5"></path>
        <path d="M680 652.26L692.82 506.33" stroke="#132e65" stroke-width="1.5"></path>
        <path d="M680 652.26L817.6 536.45" stroke="#132e65" stroke-width="1.5"></path>
        <path d="M680 652.26L508.06 512.69" stroke="#132e65" stroke-width="1.5"></path>
        <path d="M680 652.26L943.3 687.12" stroke="#132e65" stroke-width="1.5"></path>
        <path d="M819.36 376.56L819.36 376.56" stroke="#132e65" stroke-width="1.5"></path>
        <path d="M819.36 376.56L976.66 360.71" stroke="#132e65" stroke-width="1.5"></path>
        <path d="M819.36 376.56L817.6 536.45" stroke="#132e65" stroke-width="1.5"></path>
        <path d="M819.36 376.56L692.82 506.33" stroke="#132e65" stroke-width="1.5"></path>
        <path d="M817.6 536.45L817.6 536.45" stroke="#132e65" stroke-width="1.5"></path>
        <path d="M817.6 536.45L803.32 644.57" stroke="#132e65" stroke-width="1.5"></path>
        <path d="M803.32 644.57L803.32 644.57" stroke="#132e65" stroke-width="1.5"></path>
        <path d="M803.32 644.57L943.3 687.12" stroke="#132e65" stroke-width="1.5"></path>
        <path d="M803.32 644.57L692.82 506.33" stroke="#132e65" stroke-width="1.5"></path>
        <path d="M803.32 644.57L975.47 543.83" stroke="#132e65" stroke-width="1.5"></path>
        <path d="M803.32 644.57L819.36 376.56" stroke="#132e65" stroke-width="1.5"></path>
        <path d="M965.89 -78.3L965.89 -78.3" stroke="#132e65" stroke-width="1.5"></path>
        <path d="M965.89 -78.3L981.38 77.6" stroke="#132e65" stroke-width="1.5"></path>
        <path d="M965.89 -78.3L1139.7 -105.94" stroke="#132e65" stroke-width="1.5"></path>
        <path d="M981.38 77.6L981.38 77.6" stroke="#132e65" stroke-width="1.5"></path>
        <path d="M981.38 77.6L1112.45 96.18" stroke="#132e65" stroke-width="1.5"></path>
        <path d="M981.38 77.6L986.27 253.92" stroke="#132e65" stroke-width="1.5"></path>
        <path d="M981.38 77.6L1089.53 219.59" stroke="#132e65" stroke-width="1.5"></path>
        <path d="M981.38 77.6L1139.7 -105.94" stroke="#132e65" stroke-width="1.5"></path>
        <path d="M981.38 77.6L976.66 360.71" stroke="#132e65" stroke-width="1.5"></path>
        <path d="M986.27 253.92L986.27 253.92" stroke="#132e65" stroke-width="1.5"></path>
        <path d="M986.27 253.92L976.66 360.71" stroke="#132e65" stroke-width="1.5"></path>
        <path d="M986.27 253.92L1089.53 219.59" stroke="#132e65" stroke-width="1.5"></path>
        <path d="M986.27 253.92L1112.45 96.18" stroke="#132e65" stroke-width="1.5"></path>
        <path d="M986.27 253.92L819.36 376.56" stroke="#132e65" stroke-width="1.5"></path>
        <path d="M986.27 253.92L975.47 543.83" stroke="#132e65" stroke-width="1.5"></path>
        <path d="M976.66 360.71L976.66 360.71" stroke="#132e65" stroke-width="1.5"></path>
        <path d="M976.66 360.71L1089.53 219.59" stroke="#132e65" stroke-width="1.5"></path>
        <path d="M976.66 360.71L975.47 543.83" stroke="#132e65" stroke-width="1.5"></path>
        <path d="M975.47 543.83L975.47 543.83" stroke="#132e65" stroke-width="1.5"></path>
        <path d="M975.47 543.83L943.3 687.12" stroke="#132e65" stroke-width="1.5"></path>
        <path d="M975.47 543.83L817.6 536.45" stroke="#132e65" stroke-width="1.5"></path>
        <path d="M975.47 543.83L1141.07 517.85" stroke="#132e65" stroke-width="1.5"></path>
        <path d="M975.47 543.83L1123.61 704.39" stroke="#132e65" stroke-width="1.5"></path>
        <path d="M943.3 687.12L943.3 687.12" stroke="#132e65" stroke-width="1.5"></path>
        <path d="M943.3 687.12L1123.61 704.39" stroke="#132e65" stroke-width="1.5"></path>
        <path d="M943.3 687.12L817.6 536.45" stroke="#132e65" stroke-width="1.5"></path>
        <path d="M1139.7 -105.94L1139.7 -105.94" stroke="#132e65" stroke-width="1.5"></path>
        <path d="M1139.7 -105.94L1302.16 -42.62" stroke="#132e65" stroke-width="1.5"></path>
        <path d="M1139.7 -105.94L1112.45 96.18" stroke="#132e65" stroke-width="1.5"></path>
        <path d="M1139.7 -105.94L1409.86 -89.24" stroke="#132e65" stroke-width="1.5"></path>
        <path d="M1139.7 -105.94L1089.53 219.59" stroke="#132e65" stroke-width="1.5"></path>
        <path d="M1112.45 96.18L1112.45 96.18" stroke="#132e65" stroke-width="1.5"></path>
        <path d="M1112.45 96.18L1089.53 219.59" stroke="#132e65" stroke-width="1.5"></path>
        <path d="M1089.53 219.59L1089.53 219.59" stroke="#132e65" stroke-width="1.5"></path>
        <path d="M1089.53 219.59L1300.92 234.92" stroke="#132e65" stroke-width="1.5"></path>
        <path d="M1089.53 219.59L1278.32 365.74" stroke="#132e65" stroke-width="1.5"></path>
        <path d="M1141.07 517.85L1141.07 517.85" stroke="#132e65" stroke-width="1.5"></path>
        <path d="M1141.07 517.85L1245.66 551.61" stroke="#132e65" stroke-width="1.5"></path>
        <path d="M1123.61 704.39L1123.61 704.39" stroke="#132e65" stroke-width="1.5"></path>
        <path d="M1123.61 704.39L1246.03 664.35" stroke="#132e65" stroke-width="1.5"></path>
        <path d="M1123.61 704.39L1141.07 517.85" stroke="#132e65" stroke-width="1.5"></path>
        <path d="M1123.61 704.39L1245.66 551.61" stroke="#132e65" stroke-width="1.5"></path>
        <path d="M1123.61 704.39L1394.28 643.61" stroke="#132e65" stroke-width="1.5"></path>
        <path d="M1302.16 -42.62L1302.16 -42.62" stroke="#132e65" stroke-width="1.5"></path>
        <path d="M1302.16 -42.62L1409.86 -89.24" stroke="#132e65" stroke-width="1.5"></path>
        <path d="M1302.16 -42.62L1433.32 71.26" stroke="#132e65" stroke-width="1.5"></path>
        <path d="M1302.16 -42.62L1112.45 96.18" stroke="#132e65" stroke-width="1.5"></path>
        <path d="M1302.16 -42.62L1537.61 -39.72" stroke="#132e65" stroke-width="1.5"></path>
        <path d="M1302.16 -42.62L1410.06 204.65" stroke="#132e65" stroke-width="1.5"></path>
        <path d="M1300.92 234.92L1300.92 234.92" stroke="#132e65" stroke-width="1.5"></path>
        <path d="M1300.92 234.92L1410.06 204.65" stroke="#132e65" stroke-width="1.5"></path>
        <path d="M1300.92 234.92L1278.32 365.74" stroke="#132e65" stroke-width="1.5"></path>
        <path d="M1300.92 234.92L1402.08 378.75" stroke="#132e65" stroke-width="1.5"></path>
        <path d="M1300.92 234.92L1433.32 71.26" stroke="#132e65" stroke-width="1.5"></path>
        <path d="M1278.32 365.74L1278.32 365.74" stroke="#132e65" stroke-width="1.5"></path>
        <path d="M1278.32 365.74L1402.08 378.75" stroke="#132e65" stroke-width="1.5"></path>
        <path d="M1278.32 365.74L1410.57 492.18" stroke="#132e65" stroke-width="1.5"></path>
        <path d="M1278.32 365.74L1245.66 551.61" stroke="#132e65" stroke-width="1.5"></path>
        <path d="M1245.66 551.61L1245.66 551.61" stroke="#132e65" stroke-width="1.5"></path>
        <path d="M1245.66 551.61L1246.03 664.35" stroke="#132e65" stroke-width="1.5"></path>
        <path d="M1245.66 551.61L1394.28 643.61" stroke="#132e65" stroke-width="1.5"></path>
        <path d="M1245.66 551.61L1410.57 492.18" stroke="#132e65" stroke-width="1.5"></path>
        <path d="M1246.03 664.35L1246.03 664.35" stroke="#132e65" stroke-width="1.5"></path>
        <path d="M1246.03 664.35L1394.28 643.61" stroke="#132e65" stroke-width="1.5"></path>
        <path d="M1409.86 -89.24L1409.86 -89.24" stroke="#132e65" stroke-width="1.5"></path>
        <path d="M1409.86 -89.24L1537.61 -39.72" stroke="#132e65" stroke-width="1.5"></path>
        <path d="M1409.86 -89.24L1433.32 71.26" stroke="#132e65" stroke-width="1.5"></path>
        <path d="M1409.86 -89.24L1593.25 74.08" stroke="#132e65" stroke-width="1.5"></path>
        <path d="M1433.32 71.26L1433.32 71.26" stroke="#132e65" stroke-width="1.5"></path>
        <path d="M1433.32 71.26L1410.06 204.65" stroke="#132e65" stroke-width="1.5"></path>
        <path d="M1433.32 71.26L1537.61 -39.72" stroke="#132e65" stroke-width="1.5"></path>
        <path d="M1433.32 71.26L1593.25 74.08" stroke="#132e65" stroke-width="1.5"></path>
        <path d="M1410.06 204.65L1410.06 204.65" stroke="#132e65" stroke-width="1.5"></path>
        <path d="M1402.08 378.75L1402.08 378.75" stroke="#132e65" stroke-width="1.5"></path>
        <path d="M1402.08 378.75L1410.57 492.18" stroke="#132e65" stroke-width="1.5"></path>
        <path d="M1402.08 378.75L1410.06 204.65" stroke="#132e65" stroke-width="1.5"></path>
        <path d="M1410.57 492.18L1410.57 492.18" stroke="#132e65" stroke-width="1.5"></path>
        <path d="M1410.57 492.18L1394.28 643.61" stroke="#132e65" stroke-width="1.5"></path>
        <path d="M1410.57 492.18L1576.32 556.09" stroke="#132e65" stroke-width="1.5"></path>
        <path d="M1394.28 643.61L1394.28 643.61" stroke="#132e65" stroke-width="1.5"></path>
        <path d="M1394.28 643.61L1562.07 669.89" stroke="#132e65" stroke-width="1.5"></path>
        <path d="M1537.61 -39.72L1537.61 -39.72" stroke="#132e65" stroke-width="1.5"></path>
        <path d="M1537.61 -39.72L1593.25 74.08" stroke="#132e65" stroke-width="1.5"></path>
        <path d="M1537.61 -39.72L1571.37 188.65" stroke="#132e65" stroke-width="1.5"></path>
        <path d="M1537.61 -39.72L1410.06 204.65" stroke="#132e65" stroke-width="1.5"></path>
        <path d="M1593.25 74.08L1593.25 74.08" stroke="#132e65" stroke-width="1.5"></path>
        <path d="M1593.25 74.08L1571.37 188.65" stroke="#132e65" stroke-width="1.5"></path>
        <path d="M1593.25 74.08L1410.06 204.65" stroke="#132e65" stroke-width="1.5"></path>
        <path d="M1593.25 74.08L1591.12 371.08" stroke="#132e65" stroke-width="1.5"></path>
        <path d="M1571.37 188.65L1571.37 188.65" stroke="#132e65" stroke-width="1.5"></path>
        <path d="M1571.37 188.65L1410.06 204.65" stroke="#132e65" stroke-width="1.5"></path>
        <path d="M1571.37 188.65L1433.32 71.26" stroke="#132e65" stroke-width="1.5"></path>
        <path d="M1571.37 188.65L1591.12 371.08" stroke="#132e65" stroke-width="1.5"></path>
        <path d="M1591.12 371.08L1591.12 371.08" stroke="#132e65" stroke-width="1.5"></path>
        <path d="M1591.12 371.08L1576.32 556.09" stroke="#132e65" stroke-width="1.5"></path>
        <path d="M1591.12 371.08L1402.08 378.75" stroke="#132e65" stroke-width="1.5"></path>
        <path d="M1591.12 371.08L1410.57 492.18" stroke="#132e65" stroke-width="1.5"></path>
        <path d="M1591.12 371.08L1410.06 204.65" stroke="#132e65" stroke-width="1.5"></path>
        <path d="M1576.32 556.09L1576.32 556.09" stroke="#132e65" stroke-width="1.5"></path>
        <path d="M1576.32 556.09L1562.07 669.89" stroke="#132e65" stroke-width="1.5"></path>
        <path d="M1576.32 556.09L1394.28 643.61" stroke="#132e65" stroke-width="1.5"></path>
        <path d="M1576.32 556.09L1402.08 378.75" stroke="#132e65" stroke-width="1.5"></path>
        <path d="M1562.07 669.89L1562.07 669.89" stroke="#132e65" stroke-width="1.5"></path>
        <circle r="5" cx="-79.03" cy="400.56" fill="#132e65"></circle>
        <circle r="5" cx="-111.9" cy="532.45" fill="#132e65"></circle>
        <circle r="5" cx="-96.25" cy="641.74" fill="#132e65"></circle>
        <circle r="5" cx="83.66" cy="397.79" fill="#132e65"></circle>
        <circle r="5" cx="67.07" cy="544.94" fill="#132e65"></circle>
        <circle r="5" cx="64.25" cy="704.6" fill="#132e65"></circle>
        <circle r="5" cx="193.64" cy="381.1" fill="#132e65"></circle>
        <circle r="5" cx="187.55" cy="541.84" fill="#132e65"></circle>
        <circle r="5" cx="190.12" cy="681.28" fill="#132e65"></circle>
        <circle r="5" cx="338.24" cy="406.38" fill="#132e65"></circle>
        <circle r="5" cx="386.9" cy="560.61" fill="#132e65"></circle>
        <circle r="5" cx="375.04" cy="702.3" fill="#132e65"></circle>
        <circle r="5" cx="559.45" cy="353.32" fill="#132e65"></circle>
        <circle r="5" cx="508.06" cy="512.69" fill="#132e65"></circle>
        <circle r="5" cx="682.65" cy="218.61" fill="#132e65"></circle>
        <circle r="5" cx="654.17" cy="367.27" fill="#132e65"></circle>
        <circle r="5" cx="692.82" cy="506.33" fill="#132e65"></circle>
        <circle r="5" cx="680" cy="652.26" fill="#132e65"></circle>
        <circle r="5" cx="819.36" cy="376.56" fill="#132e65"></circle>
        <circle r="5" cx="817.6" cy="536.45" fill="#132e65"></circle>
        <circle r="5" cx="803.32" cy="644.57" fill="#132e65"></circle>
        <circle r="5" cx="965.89" cy="-78.3" fill="#132e65"></circle>
        <circle r="5" cx="981.38" cy="77.6" fill="#132e65"></circle>
        <circle r="5" cx="986.27" cy="253.92" fill="#132e65"></circle>
        <circle r="5" cx="976.66" cy="360.71" fill="#132e65"></circle>
        <circle r="5" cx="975.47" cy="543.83" fill="#132e65"></circle>
        <circle r="5" cx="943.3" cy="687.12" fill="#132e65"></circle>
        <circle r="5" cx="1139.7" cy="-105.94" fill="#132e65"></circle>
        <circle r="5" cx="1112.45" cy="96.18" fill="#132e65"></circle>
        <circle r="5" cx="1089.53" cy="219.59" fill="#132e65"></circle>
        <circle r="5" cx="1141.07" cy="517.85" fill="#132e65"></circle>
        <circle r="5" cx="1123.61" cy="704.39" fill="#132e65"></circle>
        <circle r="5" cx="1302.16" cy="-42.62" fill="#132e65"></circle>
        <circle r="5" cx="1300.92" cy="234.92" fill="#132e65"></circle>
        <circle r="5" cx="1278.32" cy="365.74" fill="#132e65"></circle>
        <circle r="5" cx="1245.66" cy="551.61" fill="#132e65"></circle>
        <circle r="5" cx="1246.03" cy="664.35" fill="#132e65"></circle>
        <circle r="5" cx="1409.86" cy="-89.24" fill="#132e65"></circle>
        <circle r="5" cx="1433.32" cy="71.26" fill="#132e65"></circle>
        <circle r="5" cx="1410.06" cy="204.65" fill="#132e65"></circle>
        <circle r="5" cx="1402.08" cy="378.75" fill="#132e65"></circle>
        <circle r="5" cx="1410.57" cy="492.18" fill="#132e65"></circle>
        <circle r="5" cx="1394.28" cy="643.61" fill="#132e65"></circle>
        <circle r="5" cx="1537.61" cy="-39.72" fill="#132e65"></circle>
        <circle r="5" cx="1593.25" cy="74.08" fill="#132e65"></circle>
        <circle r="5" cx="1571.37" cy="188.65" fill="#132e65"></circle>
        <circle r="5" cx="1591.12" cy="371.08" fill="#132e65"></circle>
        <circle r="5" cx="1576.32" cy="556.09" fill="#132e65"></circle>
        <circle r="5" cx="1562.07" cy="669.89" fill="#132e65"></circle>
        <path d="M-60.3 539.42L-60.3 539.42" stroke="hsl(228.5, 77.2%, 51.5%)" stroke-width="1.5"></path>
        <path d="M-60.3 539.42L-82.8 667.73" stroke="hsl(228.5, 77.2%, 51.5%)" stroke-width="1.5"></path>
        <path d="M-60.3 539.42L110.61 705" stroke="hsl(228.5, 77.2%, 51.5%)" stroke-width="1.5"></path>
        <path d="M-60.3 539.42L204.23 672.59" stroke="hsl(228.5, 77.2%, 51.5%)" stroke-width="1.5"></path>
        <path d="M369.58 649.59L369.58 649.59" stroke="hsl(228.5, 77.2%, 51.5%)" stroke-width="1.5"></path>
        <path d="M369.58 649.59L507.19 677.92" stroke="hsl(228.5, 77.2%, 51.5%)" stroke-width="1.5"></path>
        <path d="M369.58 649.59L204.23 672.59" stroke="hsl(228.5, 77.2%, 51.5%)" stroke-width="1.5"></path>
        <path d="M369.58 649.59L239.4 540.7" stroke="hsl(228.5, 77.2%, 51.5%)" stroke-width="1.5"></path>
        <path d="M369.58 649.59L502.56 493.06" stroke="hsl(228.5, 77.2%, 51.5%)" stroke-width="1.5"></path>
        <path d="M369.58 649.59L110.61 705" stroke="hsl(228.5, 77.2%, 51.5%)" stroke-width="1.5"></path>
        <path d="M525.82 403.18L525.82 403.18" stroke="hsl(228.5, 77.2%, 51.5%)" stroke-width="1.5"></path>
        <path d="M525.82 403.18L502.56 493.06" stroke="hsl(228.5, 77.2%, 51.5%)" stroke-width="1.5"></path>
        <path d="M525.82 403.18L663.1 499.24" stroke="hsl(228.5, 77.2%, 51.5%)" stroke-width="1.5"></path>
        <path d="M525.82 403.18L507.19 677.92" stroke="hsl(228.5, 77.2%, 51.5%)" stroke-width="1.5"></path>
        <path d="M525.82 403.18L369.58 649.59" stroke="hsl(228.5, 77.2%, 51.5%)" stroke-width="1.5"></path>
        <path d="M525.82 403.18L823.35 378.89" stroke="hsl(228.5, 77.2%, 51.5%)" stroke-width="1.5"></path>
        <path d="M683.3 679.1L683.3 679.1" stroke="hsl(228.5, 77.2%, 51.5%)" stroke-width="1.5"></path>
        <path d="M683.3 679.1L841.92 694.87" stroke="hsl(228.5, 77.2%, 51.5%)" stroke-width="1.5"></path>
        <path d="M683.3 679.1L507.19 677.92" stroke="hsl(228.5, 77.2%, 51.5%)" stroke-width="1.5"></path>
        <path d="M683.3 679.1L663.1 499.24" stroke="hsl(228.5, 77.2%, 51.5%)" stroke-width="1.5"></path>
        <path d="M683.3 679.1L826.56 515.55" stroke="hsl(228.5, 77.2%, 51.5%)" stroke-width="1.5"></path>
        <path d="M683.3 679.1L502.56 493.06" stroke="hsl(228.5, 77.2%, 51.5%)" stroke-width="1.5"></path>
        <path d="M1256.83 -69.49L1256.83 -69.49" stroke="hsl(228.5, 77.2%, 51.5%)" stroke-width="1.5"></path>
        <path d="M1256.83 -69.49L1244.4 59.52" stroke="hsl(228.5, 77.2%, 51.5%)" stroke-width="1.5"></path>
        <path d="M1256.83 -69.49L1403.02 -93.45" stroke="hsl(228.5, 77.2%, 51.5%)" stroke-width="1.5"></path>
        <path d="M1256.83 -69.49L1307.75 240.3" stroke="hsl(228.5, 77.2%, 51.5%)" stroke-width="1.5"></path>
        <path d="M1256.83 -69.49L1437.71 209.37" stroke="hsl(228.5, 77.2%, 51.5%)" stroke-width="1.5"></path>
        <path d="M-82.8 667.73L-82.8 667.73" stroke="hsl(228.5, 77.2%, 51.5%)" stroke-width="1.5"></path>
        <path d="M-82.8 667.73L110.61 705" stroke="hsl(228.5, 77.2%, 51.5%)" stroke-width="1.5"></path>
        <path d="M-82.8 667.73L204.23 672.59" stroke="hsl(228.5, 77.2%, 51.5%)" stroke-width="1.5"></path>
        <path d="M110.61 705L110.61 705" stroke="hsl(228.5, 77.2%, 51.5%)" stroke-width="1.5"></path>
        <path d="M110.61 705L204.23 672.59" stroke="hsl(228.5, 77.2%, 51.5%)" stroke-width="1.5"></path>
        <path d="M110.61 705L239.4 540.7" stroke="hsl(228.5, 77.2%, 51.5%)" stroke-width="1.5"></path>
        <path d="M110.61 705L507.19 677.92" stroke="hsl(228.5, 77.2%, 51.5%)" stroke-width="1.5"></path>
        <path d="M239.4 540.7L239.4 540.7" stroke="hsl(228.5, 77.2%, 51.5%)" stroke-width="1.5"></path>
        <path d="M239.4 540.7L204.23 672.59" stroke="hsl(228.5, 77.2%, 51.5%)" stroke-width="1.5"></path>
        <path d="M204.23 672.59L204.23 672.59" stroke="hsl(228.5, 77.2%, 51.5%)" stroke-width="1.5"></path>
        <path d="M502.56 493.06L502.56 493.06" stroke="hsl(228.5, 77.2%, 51.5%)" stroke-width="1.5"></path>
        <path d="M502.56 493.06L663.1 499.24" stroke="hsl(228.5, 77.2%, 51.5%)" stroke-width="1.5"></path>
        <path d="M502.56 493.06L507.19 677.92" stroke="hsl(228.5, 77.2%, 51.5%)" stroke-width="1.5"></path>
        <path d="M507.19 677.92L507.19 677.92" stroke="hsl(228.5, 77.2%, 51.5%)" stroke-width="1.5"></path>
        <path d="M507.19 677.92L663.1 499.24" stroke="hsl(228.5, 77.2%, 51.5%)" stroke-width="1.5"></path>
        <path d="M663.1 499.24L663.1 499.24" stroke="hsl(228.5, 77.2%, 51.5%)" stroke-width="1.5"></path>
        <path d="M663.1 499.24L826.56 515.55" stroke="hsl(228.5, 77.2%, 51.5%)" stroke-width="1.5"></path>
        <path d="M663.1 499.24L823.35 378.89" stroke="hsl(228.5, 77.2%, 51.5%)" stroke-width="1.5"></path>
        <path d="M823.35 378.89L823.35 378.89" stroke="hsl(228.5, 77.2%, 51.5%)" stroke-width="1.5"></path>
        <path d="M823.35 378.89L826.56 515.55" stroke="hsl(228.5, 77.2%, 51.5%)" stroke-width="1.5"></path>
        <path d="M823.35 378.89L969.67 503.04" stroke="hsl(228.5, 77.2%, 51.5%)" stroke-width="1.5"></path>
        <path d="M826.56 515.55L826.56 515.55" stroke="hsl(228.5, 77.2%, 51.5%)" stroke-width="1.5"></path>
        <path d="M826.56 515.55L969.67 503.04" stroke="hsl(228.5, 77.2%, 51.5%)" stroke-width="1.5"></path>
        <path d="M841.92 694.87L841.92 694.87" stroke="hsl(228.5, 77.2%, 51.5%)" stroke-width="1.5"></path>
        <path d="M841.92 694.87L1009.54 690.13" stroke="hsl(228.5, 77.2%, 51.5%)" stroke-width="1.5"></path>
        <path d="M841.92 694.87L826.56 515.55" stroke="hsl(228.5, 77.2%, 51.5%)" stroke-width="1.5"></path>
        <path d="M841.92 694.87L969.67 503.04" stroke="hsl(228.5, 77.2%, 51.5%)" stroke-width="1.5"></path>
        <path d="M841.92 694.87L663.1 499.24" stroke="hsl(228.5, 77.2%, 51.5%)" stroke-width="1.5"></path>
        <path d="M969.67 503.04L969.67 503.04" stroke="hsl(228.5, 77.2%, 51.5%)" stroke-width="1.5"></path>
        <path d="M969.67 503.04L1009.54 690.13" stroke="hsl(228.5, 77.2%, 51.5%)" stroke-width="1.5"></path>
        <path d="M969.67 503.04L1142.03 407.89" stroke="hsl(228.5, 77.2%, 51.5%)" stroke-width="1.5"></path>
        <path d="M1009.54 690.13L1009.54 690.13" stroke="hsl(228.5, 77.2%, 51.5%)" stroke-width="1.5"></path>
        <path d="M1009.54 690.13L1146.49 707.44" stroke="hsl(228.5, 77.2%, 51.5%)" stroke-width="1.5"></path>
        <path d="M1009.54 690.13L826.56 515.55" stroke="hsl(228.5, 77.2%, 51.5%)" stroke-width="1.5"></path>
        <path d="M1009.54 690.13L1273.12 701.66" stroke="hsl(228.5, 77.2%, 51.5%)" stroke-width="1.5"></path>
        <path d="M1095.11 221.41L1095.11 221.41" stroke="hsl(228.5, 77.2%, 51.5%)" stroke-width="1.5"></path>
        <path d="M1095.11 221.41L1142.03 407.89" stroke="hsl(228.5, 77.2%, 51.5%)" stroke-width="1.5"></path>
        <path d="M1095.11 221.41L1264.94 339.5" stroke="hsl(228.5, 77.2%, 51.5%)" stroke-width="1.5"></path>
        <path d="M1095.11 221.41L1307.75 240.3" stroke="hsl(228.5, 77.2%, 51.5%)" stroke-width="1.5"></path>
        <path d="M1142.03 407.89L1142.03 407.89" stroke="hsl(228.5, 77.2%, 51.5%)" stroke-width="1.5"></path>
        <path d="M1142.03 407.89L1264.94 339.5" stroke="hsl(228.5, 77.2%, 51.5%)" stroke-width="1.5"></path>
        <path d="M1142.03 407.89L1240.74 557.07" stroke="hsl(228.5, 77.2%, 51.5%)" stroke-width="1.5"></path>
        <path d="M1142.03 407.89L1307.75 240.3" stroke="hsl(228.5, 77.2%, 51.5%)" stroke-width="1.5"></path>
        <path d="M1142.03 407.89L1146.49 707.44" stroke="hsl(228.5, 77.2%, 51.5%)" stroke-width="1.5"></path>
        <path d="M1146.49 707.44L1146.49 707.44" stroke="hsl(228.5, 77.2%, 51.5%)" stroke-width="1.5"></path>
        <path d="M1146.49 707.44L1273.12 701.66" stroke="hsl(228.5, 77.2%, 51.5%)" stroke-width="1.5"></path>
        <path d="M1146.49 707.44L1240.74 557.07" stroke="hsl(228.5, 77.2%, 51.5%)" stroke-width="1.5"></path>
        <path d="M1244.4 59.52L1244.4 59.52" stroke="hsl(228.5, 77.2%, 51.5%)" stroke-width="1.5"></path>
        <path d="M1244.4 59.52L1307.75 240.3" stroke="hsl(228.5, 77.2%, 51.5%)" stroke-width="1.5"></path>
        <path d="M1244.4 59.52L1095.11 221.41" stroke="hsl(228.5, 77.2%, 51.5%)" stroke-width="1.5"></path>
        <path d="M1307.75 240.3L1307.75 240.3" stroke="hsl(228.5, 77.2%, 51.5%)" stroke-width="1.5"></path>
        <path d="M1307.75 240.3L1264.94 339.5" stroke="hsl(228.5, 77.2%, 51.5%)" stroke-width="1.5"></path>
        <path d="M1307.75 240.3L1437.71 209.37" stroke="hsl(228.5, 77.2%, 51.5%)" stroke-width="1.5"></path>
        <path d="M1307.75 240.3L1440.1 371.82" stroke="hsl(228.5, 77.2%, 51.5%)" stroke-width="1.5"></path>
        <path d="M1264.94 339.5L1264.94 339.5" stroke="hsl(228.5, 77.2%, 51.5%)" stroke-width="1.5"></path>
        <path d="M1240.74 557.07L1240.74 557.07" stroke="hsl(228.5, 77.2%, 51.5%)" stroke-width="1.5"></path>
        <path d="M1240.74 557.07L1273.12 701.66" stroke="hsl(228.5, 77.2%, 51.5%)" stroke-width="1.5"></path>
        <path d="M1240.74 557.07L1264.94 339.5" stroke="hsl(228.5, 77.2%, 51.5%)" stroke-width="1.5"></path>
        <path d="M1240.74 557.07L1450.56 654.26" stroke="hsl(228.5, 77.2%, 51.5%)" stroke-width="1.5"></path>
        <path d="M1240.74 557.07L1009.54 690.13" stroke="hsl(228.5, 77.2%, 51.5%)" stroke-width="1.5"></path>
        <path d="M1273.12 701.66L1273.12 701.66" stroke="hsl(228.5, 77.2%, 51.5%)" stroke-width="1.5"></path>
        <path d="M1273.12 701.66L1450.56 654.26" stroke="hsl(228.5, 77.2%, 51.5%)" stroke-width="1.5"></path>
        <path d="M1403.02 -93.45L1403.02 -93.45" stroke="hsl(228.5, 77.2%, 51.5%)" stroke-width="1.5"></path>
        <path d="M1403.02 -93.45L1609.77 -47.86" stroke="hsl(228.5, 77.2%, 51.5%)" stroke-width="1.5"></path>
        <path d="M1437.71 209.37L1437.71 209.37" stroke="hsl(228.5, 77.2%, 51.5%)" stroke-width="1.5"></path>
        <path d="M1437.71 209.37L1574.75 210.08" stroke="hsl(228.5, 77.2%, 51.5%)" stroke-width="1.5"></path>
        <path d="M1437.71 209.37L1440.1 371.82" stroke="hsl(228.5, 77.2%, 51.5%)" stroke-width="1.5"></path>
        <path d="M1437.71 209.37L1570.96 363.52" stroke="hsl(228.5, 77.2%, 51.5%)" stroke-width="1.5"></path>
        <path d="M1440.1 371.82L1440.1 371.82" stroke="hsl(228.5, 77.2%, 51.5%)" stroke-width="1.5"></path>
        <path d="M1440.1 371.82L1570.96 363.52" stroke="hsl(228.5, 77.2%, 51.5%)" stroke-width="1.5"></path>
        <path d="M1440.1 371.82L1264.94 339.5" stroke="hsl(228.5, 77.2%, 51.5%)" stroke-width="1.5"></path>
        <path d="M1440.1 371.82L1574.75 210.08" stroke="hsl(228.5, 77.2%, 51.5%)" stroke-width="1.5"></path>
        <path d="M1450.56 654.26L1450.56 654.26" stroke="hsl(228.5, 77.2%, 51.5%)" stroke-width="1.5"></path>
        <path d="M1450.56 654.26L1547.61 702.47" stroke="hsl(228.5, 77.2%, 51.5%)" stroke-width="1.5"></path>
        <path d="M1450.56 654.26L1440.1 371.82" stroke="hsl(228.5, 77.2%, 51.5%)" stroke-width="1.5"></path>
        <path d="M1609.77 -47.86L1609.77 -47.86" stroke="hsl(228.5, 77.2%, 51.5%)" stroke-width="1.5"></path>
        <path d="M1609.77 -47.86L1598.69 66.99" stroke="hsl(228.5, 77.2%, 51.5%)" stroke-width="1.5"></path>
        <path d="M1609.77 -47.86L1574.75 210.08" stroke="hsl(228.5, 77.2%, 51.5%)" stroke-width="1.5"></path>
        <path d="M1609.77 -47.86L1437.71 209.37" stroke="hsl(228.5, 77.2%, 51.5%)" stroke-width="1.5"></path>
        <path d="M1598.69 66.99L1598.69 66.99" stroke="hsl(228.5, 77.2%, 51.5%)" stroke-width="1.5"></path>
        <path d="M1598.69 66.99L1574.75 210.08" stroke="hsl(228.5, 77.2%, 51.5%)" stroke-width="1.5"></path>
        <path d="M1598.69 66.99L1437.71 209.37" stroke="hsl(228.5, 77.2%, 51.5%)" stroke-width="1.5"></path>
        <path d="M1574.75 210.08L1574.75 210.08" stroke="hsl(228.5, 77.2%, 51.5%)" stroke-width="1.5"></path>
        <path d="M1574.75 210.08L1570.96 363.52" stroke="hsl(228.5, 77.2%, 51.5%)" stroke-width="1.5"></path>
        <path d="M1574.75 210.08L1307.75 240.3" stroke="hsl(228.5, 77.2%, 51.5%)" stroke-width="1.5"></path>
        <path d="M1570.96 363.52L1570.96 363.52" stroke="hsl(228.5, 77.2%, 51.5%)" stroke-width="1.5"></path>
        <path d="M1570.96 363.52L1307.75 240.3" stroke="hsl(228.5, 77.2%, 51.5%)" stroke-width="1.5"></path>
        <path d="M1547.61 702.47L1547.61 702.47" stroke="hsl(228.5, 77.2%, 51.5%)" stroke-width="1.5"></path>
        <circle r="25" cx="-60.3" cy="539.42" fill="url(&quot;#SvgjsRadialGradient1001&quot;)"></circle>
        <circle r="25" cx="369.58" cy="649.59" fill="url(&quot;#SvgjsRadialGradient1001&quot;)"></circle>
        <circle r="25" cx="525.82" cy="403.18" fill="url(&quot;#SvgjsRadialGradient1001&quot;)"></circle>
        <circle r="25" cx="683.3" cy="679.1" fill="url(&quot;#SvgjsRadialGradient1001&quot;)"></circle>
        <circle r="25" cx="1256.83" cy="-69.49" fill="url(&quot;#SvgjsRadialGradient1001&quot;)"></circle>
        <circle r="5" cx="-82.8" cy="667.73" fill="#8b9ad9"></circle>
        <circle r="5" cx="110.61" cy="705" fill="#8b9ad9"></circle>
        <circle r="5" cx="239.4" cy="540.7" fill="#8b9ad9"></circle>
        <circle r="5" cx="204.23" cy="672.59" fill="#8b9ad9"></circle>
        <circle r="5" cx="502.56" cy="493.06" fill="#8b9ad9"></circle>
        <circle r="5" cx="507.19" cy="677.92" fill="#8b9ad9"></circle>
        <circle r="5" cx="663.1" cy="499.24" fill="#8b9ad9"></circle>
        <circle r="5" cx="823.35" cy="378.89" fill="#8b9ad9"></circle>
        <circle r="5" cx="826.56" cy="515.55" fill="#8b9ad9"></circle>
        <circle r="5" cx="841.92" cy="694.87" fill="#8b9ad9"></circle>
        <circle r="5" cx="969.67" cy="503.04" fill="#8b9ad9"></circle>
        <circle r="5" cx="1009.54" cy="690.13" fill="#8b9ad9"></circle>
        <circle r="5" cx="1095.11" cy="221.41" fill="#8b9ad9"></circle>
        <circle r="5" cx="1142.03" cy="407.89" fill="#8b9ad9"></circle>
        <circle r="5" cx="1146.49" cy="707.44" fill="#8b9ad9"></circle>
        <circle r="5" cx="1244.4" cy="59.52" fill="#8b9ad9"></circle>
        <circle r="5" cx="1307.75" cy="240.3" fill="#8b9ad9"></circle>
        <circle r="5" cx="1264.94" cy="339.5" fill="#8b9ad9"></circle>
        <circle r="5" cx="1240.74" cy="557.07" fill="#8b9ad9"></circle>
        <circle r="5" cx="1273.12" cy="701.66" fill="#8b9ad9"></circle>
        <circle r="5" cx="1403.02" cy="-93.45" fill="#8b9ad9"></circle>
        <circle r="5" cx="1437.71" cy="209.37" fill="#8b9ad9"></circle>
        <circle r="5" cx="1440.1" cy="371.82" fill="#8b9ad9"></circle>
        <circle r="5" cx="1450.56" cy="654.26" fill="#8b9ad9"></circle>
        <circle r="5" cx="1609.77" cy="-47.86" fill="#8b9ad9"></circle>
        <circle r="5" cx="1598.69" cy="66.99" fill="#8b9ad9"></circle>
        <circle r="5" cx="1574.75" cy="210.08" fill="#8b9ad9"></circle>
        <circle r="5" cx="1570.96" cy="363.52" fill="#8b9ad9"></circle>
        <circle r="5" cx="1547.61" cy="702.47" fill="#8b9ad9"></circle>
    </g>
    <defs>
        <mask id="SvgjsMask1000">
            <rect width="1440" height="560" fill="#ffffff"></rect>
        </mask>
        <radialGradient id="SvgjsRadialGradient1001">
            <stop stop-color="#ffffff" offset="0.1"></stop>
            <stop stop-color="#1735b3" offset="0.2"></stop>
            <stop stop-color="rgba(23, 53, 179, 0)" offset="1"></stop>
        </radialGradient>
    </defs>
</svg>